<?xml version="1.0" encoding="UTF-8"?>
<svg id="Capa_2" data-name="Capa 2" xmlns="http://www.w3.org/2000/svg" viewBox="0 0 444.89 86.6">
  <defs>
    <style>
      .cls-1 {
        fill: #2a181c;
      }
    </style>
  </defs>
  <g id="Capa_1-2" data-name="Capa 1">
    <path class="cls-1" d="M0,67.43V5.19C0,3.89.48,2.78,1.43,1.84,2.39.91,3.57.44,4.97.44h9.52c1.33,0,2.47.47,3.41,1.4.94.93,1.41,2.05,1.41,3.35v22.5h35.23V5.19c0-1.3.48-2.42,1.43-3.35.96-.93,2.1-1.4,3.43-1.4h9.52c1.4,0,2.57.47,3.51,1.4.94.93,1.41,2.05,1.41,3.35v62.24c0,1.3-.49,2.41-1.46,3.32-.97.92-2.12,1.38-3.46,1.38h-9.52c-1.33,0-2.48-.44-3.43-1.32-.95-.88-1.43-1.97-1.43-3.27v-25.69H19.31v25.69c0,1.3-.47,2.39-1.41,3.27-.94.89-2.07,1.32-3.41,1.32H4.97c-1.33,0-2.49-.46-3.48-1.38s-1.49-2.02-1.49-3.32h0Z"/>
    <path class="cls-1" d="M79.95,47.45v-29.43c0-.92.3-1.69.9-2.28s1.34-.9,2.23-.9h11.47c.89,0,1.63.3,2.23.9s.9,1.36.9,2.28v29.43c0,8.22,3.24,12.33,9.73,12.33,4.27,0,8.86-2.47,13.77-7.4V18.02c0-.92.3-1.69.9-2.28s1.34-.9,2.23-.9h11.42c.92,0,1.68.3,2.28.9s.9,1.36.9,2.28v49.98c0,.89-.3,1.64-.9,2.24-.6.6-1.36.9-2.28.9h-11.42c-.89,0-1.63-.3-2.23-.9s-.9-1.35-.9-2.24v-3.29c-5.87,4.97-12.13,7.45-18.77,7.45s-12.04-2.03-16.21-6.09-6.25-10.26-6.25-18.62h0s0,0,0,0Z"/>
    <path class="cls-1" d="M197.34,72.06c-9.58,0-17.03-2.42-22.36-7.25-5.33-4.83-7.99-11.95-7.99-21.33s2.65-16.51,7.94-21.36c5.29-4.85,12.66-7.28,22.1-7.28s16.69,1.48,21.76,4.43c5.07,2.96,7.61,7.32,7.61,13.1,0,.91-.3,1.65-.9,2.22s-1.36.86-2.28.86h-7.63c-2.32,0-4.28-1.22-5.89-3.68-2.02-3.16-5.57-4.73-10.67-4.73s-8.67,1.28-10.7,3.85c-2.03,2.57-3.05,6.76-3.05,12.57s1.05,10.01,3.15,12.59,5.75,3.88,10.96,3.88,8.81-1.58,10.83-4.73c1.6-2.49,3.57-3.73,5.89-3.73h7.63c.92,0,1.68.29,2.28.88s.9,1.32.9,2.19c0,5.78-2.54,10.14-7.61,13.1s-12.39,4.43-21.96,4.43h0s0,0,0,0h0Z"/>
    <path class="cls-1" d="M231.32,69.12V3.35c0-.9.3-1.65.9-2.23s1.34-.88,2.23-.88h11.47c.89,0,1.63.29,2.23.88.6.58.9,1.33.9,2.23v20.12c5.87-4.85,12.13-7.28,18.77-7.28s12.04,1.98,16.21,5.94,6.25,10.03,6.25,18.19v28.79c0,.87-.3,1.6-.9,2.18s-1.36.88-2.28.88h-11.42c-.89,0-1.63-.29-2.23-.88-.6-.58-.9-1.31-.9-2.18v-28.79c0-7.99-3.26-11.99-9.78-11.99-4.27,0-8.84,2.39-13.72,7.17v33.61c0,.87-.3,1.6-.9,2.18-.6.58-1.34.88-2.23.88h-11.47c-.89,0-1.63-.29-2.23-.88-.6-.58-.9-1.31-.9-2.18h0s0,0,0,0Z"/>
    <path class="cls-1" d="M294.74,83.5V17.99c0-.9.3-1.64.9-2.23.6-.58,1.34-.88,2.23-.88h9.88c.89,0,1.63.29,2.23.88s.9,1.33.9,2.23v1.5c5.4-3.73,11.66-5.6,18.79-5.6s13.09,2.46,17.87,7.38c4.78,4.92,7.17,11.95,7.17,21.1s-2.48,16.16-7.43,21.03c-4.95,4.87-11.62,7.3-20.02,7.3-4.34,0-9.27-.85-14.8-2.55v15.35c0,.9-.3,1.64-.9,2.23s-1.34.88-2.23.88h-11.47c-.89,0-1.63-.29-2.23-.88s-.9-1.32-.9-2.23h0s0,0,0,0h0ZM312.46,56.59c4.4,1.37,8.11,2.05,11.11,2.05,4.68,0,8-1.3,9.96-3.9,1.96-2.6,2.94-6.75,2.94-12.45s-.93-9.84-2.79-12.43c-1.86-2.58-4.64-3.88-8.35-3.88s-8,1.5-12.88,4.5v26.1h0Z"/>
    <path class="cls-1" d="M359.14,69.07V3.12c0-.91.3-1.65.9-2.24s1.34-.88,2.23-.88h11.47c.89,0,1.63.29,2.23.88s.9,1.33.9,2.24v65.95c0,.87-.3,1.6-.9,2.19s-1.34.88-2.23.88h-11.47c-.89,0-1.63-.29-2.23-.88s-.9-1.32-.9-2.19h0Z"/>
    <path class="cls-1" d="M396.86,73.94l6.71.84c4.81,0,8.18-3.43,10.09-10.27-5.8,0-10.65-1.7-14.54-5.09-3.89-3.39-7.24-9.42-10.04-18.09l-7.63-23.97c-.1-.26-.15-.57-.15-.92s.21-.77.64-1.26c.43-.5,1.07-.76,1.92-.79h10.7c.99,0,1.94.32,2.84.97s1.49,1.45,1.77,2.41l6.71,21.04c1.67,5.16,3.37,8.73,5.1,10.72,1.72,1.98,3.76,2.98,6.12,2.98l10.19-34.73c.27-.96.81-1.76,1.61-2.41.8-.64,1.7-.97,2.69-.97h10.81c.85,0,1.49.26,1.89.79.41.53.61.97.61,1.31s-.03.64-.1.87l-13.42,46.35c-2.39,8.2-5.35,14.06-8.88,17.57s-8.08,5.26-13.65,5.26-9.5-.2-11.8-.6c-2.31-.4-3.75-.89-4.33-1.46s-.87-1.25-.87-2.01v-5.46c0-.89.29-1.63.87-2.21s1.33-.87,2.25-.87h1.9Z"/>
    <g>
      <path class="cls-1" d="M144.92,69.14V20.54c0-.92.3-1.67.9-2.25.6-.58,1.34-.87,2.23-.87h11.47c.92,0,1.67.3,2.25.9s.87,1.34.87,2.23v48.6c0,.92-.3,1.67-.9,2.25s-1.34.87-2.23.87h-11.47c-.92,0-1.67-.29-2.25-.87s-.87-1.33-.87-2.25h0Z"/>
      <path class="cls-1" d="M146.77.47h14.01c1.02,0,1.85.83,1.85,1.85v9.69c0,1.02-.83,1.85-1.85,1.85h-14.01c-1.02,0-1.85-.83-1.85-1.85V2.33c0-1.02.83-1.85,1.85-1.85Z"/>
    </g>
  </g>
</svg>